:SAMPLES-PER-SECOND 30
:FULLY-SPECIFIED
:DEGREES
695
root  18.6491 37.6254 -1.51156 55.5992 -85.6331 -60.5104
RightUpLeg  -19.8868 -7.55201 3.99119
RightLeg  25.1373 1.7361 0.655421
RightFoot  -3.72688 0.0383294 -0.880812
RightToes  -1.16417e-010 0 -3.6325e-017
Spine  2.8228 -0.123123 14.5341
Spine1  6.68966 1.46889 -3.59807
HEad  -10.9044 -7.82963 -7.8464
LeftShoulder1  -0.702438 5.21312 -34.9077
LeftArm  0.765071 7.86384 -43.4982
LeftForeArm  36.0643 -8.58857 -9.91435
LeftHand  -0.103308 9.84113 -1.14527
RightShoulder  -1.00062 -6.27244 29.5902
RightArm  14.4506 -3.08577 45.1624
RightForeArm  21.8273 8.00114 7.17533
RightHand  0.0430134 2.19269 0.476072
LeftUpLeg  11.8702 3.01084 4.85875
LeftLeg  38.3036 -2.52927 -1.70206
LeftFoot  -7.12656 0.354362 -8.77281
LeftToes  3.13772e-010 -3.14513e-011 3.96022e-013
696
root  17.3811 37.6041 -1.59803 53.7253 -83.6107 -58.0214
RightUpLeg  -19.0457 -8.10582 5.5095
RightLeg  26.8003 1.27513 0.457246
RightFoot  -7.35964 -0.0580247 0.154777
RightToes  -1.16417e-010 0 -3.6325e-017
Spine  2.49269 -0.154779 17.3622
Spine1  6.17946 1.60568 -3.19458
HEad  -11.1374 -8.52499 -8.07454
LeftShoulder1  -0.700388 5.19562 -35.1993
LeftArm  -3.58325 9.90515 -42.8558
LeftForeArm  43.0345 -4.02416 -9.55778
LeftHand  -0.250849 11.145 -3.70531
RightShoulder  -1.00665 -6.31715 29.2322
RightArm  13.9593 -2.07172 44.9931
RightForeArm  20.9654 8.80892 6.85762
RightHand  0.0120803 2.14702 -0.00266906
LeftUpLeg  4.61324 1.14674 6.43813
LeftLeg  49.7335 -0.979951 -0.722826
LeftFoot  6.24234 1.086 -7.58353
LeftToes  3.13772e-010 -3.14513e-011 3.96022e-013
697
root  16.1886 37.4924 -1.68016 54.4068 -82.0612 -58.6616
RightUpLeg  -18.0453 -8.61333 6.82372
RightLeg  28.8455 1.04614 0.3731
RightFoot  -10.0196 -0.069182 0.100316
RightToes  -1.16417e-010 0 -3.6325e-017
Spine  3.3356 -0.122415 20.2874
Spine1  5.44837 2.15842 -3.44483
HEad  -12.1427 -9.81092 -7.9515
LeftShoulder1  -0.656531 5.10477 -34.8279
LeftArm  -4.11147 12.5898 -42.0715
LeftForeArm  47.529 -3.33984 -9.14718
LeftHand  -0.337931 10.7986 -5.73792
RightShoulder  -1.01351 -6.3315 29.2952
RightArm  14.1902 -1.07473 44.321
RightForeArm  18.4758 10.9735 6.37332
RightHand  0.0564326 2.66341 0.607995
LeftUpLeg  -2.14143 0.323411 7.88398
LeftLeg  59.1389 -0.848021 -1.26937
LeftFoot  15.1331 0.969468 -4.31017
LeftToes  3.13772e-010 -3.14513e-011 3.96022e-013
698
root  14.9328 37.5878 -1.85862 49.8944 -82.2356 -54.4085
RightUpLeg  -15.9841 -8.93065 6.37832
RightLeg  29.5991 1.18364 0.467976
RightFoot  -11.1176 -0.0742718 -0.65677
RightToes  -1.16417e-010 0 -3.6325e-017
Spine  5.38032 -0.0736691 19.0019
Spine1  3.29298 2.15242 -2.25092
HEad  -13.4397 -10.4546 -7.64874
LeftShoulder1  -0.682498 5.16714 -34.8597
LeftArm  -1.64565 16.3099 -40.1307
LeftForeArm  47.3332 -6.23286 -9.55603
LeftHand  -0.298127 10.0038 -5.80387
RightShoulder  -1.03813 -6.3952 29.3631
RightArm  17.4988 0.543338 43.7085
RightForeArm  14.1651 13.9739 5.98064
RightHand  0.0327302 2.34763 0.307139
LeftUpLeg  -8.10818 0.36865 7.72954
LeftLeg  65.5404 -3.54694 -7.70969
LeftFoot  8.08831 0.424536 -2.8843
LeftToes  3.13772e-010 -3.14513e-011 3.96022e-013
699
root  13.718 37.6763 -2.09178 42.6192 -82.6412 -47.4285
RightUpLeg  -14.2483 -9.0868 5.63806
RightLeg  30.936 0.887275 0.311498
RightFoot  -11.8487 -0.0907277 -2.40803
RightToes  -1.16417e-010 0 -3.6325e-017
Spine  7.60751 -0.401009 16.4099
Spine1  1.32784 1.69445 -1.12966
HEad  -15.2954 -11.345 -6.43949
LeftShoulder1  -0.567162 4.91922 -33.8377
LeftArm  8.23526 21.8096 -38.4217
LeftForeArm  36.4638 -14.593 -7.8055
LeftHand  -0.206018 9.01565 -4.74875
RightShoulder  -1.05175 -6.43922 29.293
RightArm  23.1465 1.2994 43.6675
RightForeArm  9.86542 20.1308 5.15139
RightHand  -0.0547532 2.62324 -1.01999
LeftUpLeg  -13.7339 0.918728 7.08596
LeftLeg  67.2739 -3.94352 -9.54674
LeftFoot  2.29892 0.508531 -4.33073
LeftToes  3.13772e-010 -3.14513e-011 3.96022e-013
700
root  12.5057 37.8165 -2.37512 33.6727 -82.7811 -39.1179
RightUpLeg  -11.6881 -10.3616 4.65898
RightLeg  31.5949 1.73258 0.87355
RightFoot  -13.1219 -0.128334 -2.65016
RightToes  -1.16417e-010 0 -3.6325e-017
Spine  8.82884 -0.517162 13.8231
Spine1  1.44189 1.36357 -0.881979
HEad  -17.5338 -13.4946 -4.06557
LeftShoulder1  -0.296083 4.27008 -32.5814
LeftArm  17.8607 26.2952 -36.6394
LeftForeArm  23.7841 -24.5621 -3.90487
LeftHand  -0.153546 8.39179 -3.97515
RightShoulder  -1.04778 -6.47237 28.7604
RightArm  22.8763 0.151187 43.9309
RightForeArm  11.7268 28.6265 5.42967
RightHand  -0.121566 4.04049 -1.70622
LeftUpLeg  -18.2028 2.25955 6.4385
LeftLeg  63.9385 -3.5272 -7.32918
LeftFoot  -2.2686 0.352547 -4.2268
LeftToes  3.13772e-010 -3.14513e-011 3.96022e-013
701
root  11.3809 38.0771 -2.63009 24.6208 -83.6166 -30.1469
RightUpLeg  -10.2412 -12.7161 2.9512
RightLeg  32.9317 4.43714 2.83784
RightFoot  -13.0454 -0.111966 -1.72391
RightToes  -1.16417e-010 0 -3.6325e-017
Spine  10.1035 -0.404801 10.4763
Spine1  1.11249 1.02581 -1.00838
HEad  -19.0497 -14.976 -1.55721
LeftShoulder1  -0.151271 3.90315 -31.7282
LeftArm  11.3105 30.2347 -34.6595
LeftForeArm  26.9167 -33.8959 -5.95843
LeftHand  -0.136202 9.19862 -2.47669
RightShoulder  -1.06201 -6.53637 28.4866
RightArm  22.7857 0.0864781 44.635
RightForeArm  10.3996 33.2553 6.77475
RightHand  -0.316646 6.50027 -3.45589
LeftUpLeg  -21.2982 4.44303 4.94975
LeftLeg  54.6575 -3.49936 -4.78004
LeftFoot  -4.77347 0.242465 -3.81715
LeftToes  3.13772e-010 -3.14513e-011 3.96022e-013
702
root  10.4848 38.2117 -2.79851 36.8225 -85.9021 -41.6519
RightUpLeg  -12.6604 -13.6366 1.311
RightLeg  38.7177 7.72489 6.38887
RightFoot  -10.6061 -0.0985568 1.51828
RightToes  -1.16417e-010 0 -3.6325e-017
Spine  12.0405 0.0754521 8.01494
Spine1  0.0287 1.26512 -2.20461
HEad  -19.4861 -16.5161 -0.620209
LeftShoulder1  0.0407699 3.3928 -30.7265
LeftArm  3.84499 34.0037 -35.6632
LeftForeArm  28.2384 -42.7961 -8.46614
LeftHand  -0.0412987 8.91821 0.299795
RightShoulder  -1.0381 -6.48704 28.2661
RightArm  23.2272 2.27727 46.4553
RightForeArm  9.38884 32.8766 6.75033
RightHand  -0.330345 6.29219 -3.59147
LeftUpLeg  -23.2075 7.17098 3.55967
LeftLeg  41.0843 -5.49295 -4.61923
LeftFoot  -5.88895 0.392808 -6.97025
LeftToes  3.13772e-010 -3.14513e-011 3.96022e-013
703
root  9.73721 38.0729 -2.86498 59.6468 -89.7047 -64.7415
RightUpLeg  -16.6902 -12.5431 -0.731583
RightLeg  47.9285 10.537 11.976
RightFoot  -6.18611 -0.375816 7.302
RightToes  -1.16417e-010 0 -3.6325e-017
Spine  14.8471 0.707041 6.53009
Spine1  0.21394 2.1486 -4.18289
HEad  -20.5626 -16.3833 -0.23101
LeftShoulder1  0.245497 2.82035 -29.8093
LeftArm  -1.56148 35.2934 -38.4475
LeftForeArm  27.8957 -50.1011 -11.2828
LeftHand  -0.000459171 7.29896 2.18396
RightShoulder  -0.966795 -6.26664 28.4252
RightArm  23.4282 6.82629 48.525
RightForeArm  10.2456 29.8268 5.93978
RightHand  -0.203459 4.87537 -2.6096
LeftUpLeg  -22.7095 8.2762 3.03899
LeftLeg  27.4139 -8.69079 -4.6031
LeftFoot  -2.52066 0.854445 -12.0869
LeftToes  3.13772e-010 -3.14513e-011 3.96022e-013
704
root  8.99402 37.5326 -2.86584 167.23 -85.1946 -173.496
RightUpLeg  -20.1082 -9.42091 -3.514
RightLeg  56.0756 11.045 16.6024
RightFoot  -5.12045 -0.752589 13.428
RightToes  -1.16417e-010 0 -3.6325e-017
Spine  17.4985 1.22505 4.12991
Spine1  1.67641 2.82515 -5.30433
HEad  -23.2214 -13.9725 -0.0729419
LeftShoulder1  0.330908 2.56792 -29.1495
LeftArm  -3.26892 33.8149 -40.664
LeftForeArm  29.0146 -56.2241 -14.3579
LeftHand  0.0031812 6.55875 3.26094
RightShoulder  -0.7364 -5.67084 27.275
RightArm  24.918 11.7755 50.9069
RightForeArm  7.59349 25.9024 5.1557
RightHand  -0.273903 5.1803 -3.30667
LeftUpLeg  -22.8812 7.63519 2.62436
LeftLeg  24.0788 -8.54003 -3.75561
LeftFoot  4.30889 0.474997 -3.20017
LeftToes  3.13772e-010 -3.14513e-011 3.96022e-013
705
root  8.27779 36.7289 -2.78824 177.933 -82.2858 174.643
RightUpLeg  -23.0591 -6.4855 -5.49707
RightLeg  58.9544 8.81502 15.0819
RightFoot  -7.78291 -0.444388 12.0539
RightToes  -1.16417e-010 0 -3.6325e-017
Spine  20.5674 1.04727 2.84434
Spine1  1.3986 2.67865 -5.90695
HEad  -28.4977 -9.24232 1.14383
LeftShoulder1  0.113507 3.17799 -29.6889
LeftArm  -1.84194 28.7805 -40.0476
LeftForeArm  31.4483 -59.9486 -16.5715
LeftHand  -0.0210687 5.76729 2.57958
RightShoulder  -0.527517 -5.09405 26.3954
RightArm  24.1382 14.9066 52.4488
RightForeArm  7.23534 24.6918 4.90883
RightHand  -0.360308 5.74 -4.07972
LeftUpLeg  -24.849 8.40626 2.49365
LeftLeg  32.6766 -5.40355 -3.39142
LeftFoot  1.79921 -0.45054 3.73845
LeftToes  3.13772e-010 -3.14513e-011 3.96022e-013
706
root  7.7168 36.2054 -2.76421 175.631 -81.0546 176.854
RightUpLeg  -24.9792 -3.72801 -6.27413
RightLeg  53.401 5.41627 7.48326
RightFoot  -9.75079 -0.141772 5.97251
RightToes  -1.16417e-010 0 -3.6325e-017
Spine  22.2422 0.64232 2.95734
Spine1  2.16531 2.24482 -5.12083
HEad  -29.414 -10.0597 1.2832
LeftShoulder1  -0.19526 4.02975 -31.2808
LeftArm  2.19964 16.8907 -38.1062
LeftForeArm  29.8901 -58.1425 -15.6214
LeftHand  -0.0156004 5.77621 3.30768
RightShoulder  -0.585003 -5.20648 27.6262
RightArm  21.1674 17.9122 52.0912
RightForeArm  8.11224 24.9773 4.92676
RightHand  -0.404683 5.92326 -4.4736
LeftUpLeg  -27.0018 9.14711 3.01211
LeftLeg  38.997 -4.56676 -3.5825
LeftFoot  -1.12397 -0.37211 4.24382
LeftToes  3.13772e-010 -3.14513e-011 3.96022e-013
